<?xml version="1.0" encoding="UTF-8" standalone="no"?>
<!-- Created with boxer (http://trmm.net/) -->

<svg
   xmlns:dc="http://purl.org/dc/elements/1.1/"
   xmlns:cc="http://creativecommons.org/ns#"
   xmlns:rdf="http://www.w3.org/1999/02/22-rdf-syntax-ns#"
   xmlns:svg="http://www.w3.org/2000/svg"
   xmlns="http://www.w3.org/2000/svg"
   xmlns:sodipodi="http://sodipodi.sourceforge.net/DTD/sodipodi-0.dtd"
   xmlns:inkscape="http://www.inkscape.org/namespaces/inkscape"
   id="svg4501"
   version="1.1"
   inkscape:version="0.48.2 r9819"
   width="100%"
   height="100%"
   sodipodi:docname="box.svg">
  <metadata
     id="metadata4533">
    <rdf:RDF>
      <cc:Work
         rdf:about="">
        <dc:format>image/svg+xml</dc:format>
        <dc:type
           rdf:resource="http://purl.org/dc/dcmitype/StillImage" />
      </cc:Work>
    </rdf:RDF>
  </metadata>
  <defs
     id="defs4531" />
  <sodipodi:namedview
     pagecolor="#ffffff"
     bordercolor="#666666"
     borderopacity="1"
     objecttolerance="10"
     gridtolerance="10"
     guidetolerance="10"
     inkscape:pageopacity="0"
     inkscape:pageshadow="2"
     inkscape:window-width="1440"
     inkscape:window-height="852"
     id="namedview4529"
     showgrid="false"
     inkscape:zoom="0.60245418"
     inkscape:cx="372.04724"
     inkscape:cy="526.18109"
     inkscape:window-x="0"
     inkscape:window-y="0"
     inkscape:window-maximized="1"
     inkscape:current-layer="g4503" />
  <g
     transform="scale(3.543307)"
     id="g4503">
    <!-- scale to mm -->
    <g
       transform="translate(2.4765489,15.958959)"
       id="g4505">
      <path
         d="m 5,5 7.9,0 0,-5 10.2,0 0,5 9.8,0 0,-5 10.2,0 0,5 9.8,0 0,-5 10.2,0 0,5 9.8,0 0,-5 10.2,0 0,5 7.9,0 0,7.9 5,0 0,10.2 -5,0 0,9.8 5,0 0,10.2 -5,0 0,9.8 5,0 0,10.2 -5,0 0,9.8 5,0 0,10.2 -5,0 0,7.9 -7.9,0 0,5 -10.2,0 0,-5 -9.8,0 0,5 -10.2,0 0,-5 -9.8,0 0,5 -10.2,0 0,-5 -9.8,0 0,5 -10.2,0 0,-5 -7.9,0 0,-7.9 -5,0 0,-10.2 5,0 0,-9.8 -5,0 0,-10.2 5,0 0,-9.8 -5,0 0,-10.2 5,0 0,-9.8 -5,0 0,-10.2 5,0 L 5,5"
         id="path4507"
         inkscape:connector-curvature="0"
         style="fill:none;stroke:#ff0000;stroke-width:0.1px" />
    </g>
    <g
       transform="translate(2.0973189,120.16444)"
       id="g4513">
      <path
         id="path4541"
         style="fill:none;stroke:#ff0000;stroke-width:0.1px"
         d="m 95.997856,0 -12.9,0 -0.2,5 -9.8,0 -0.2,-5 -9.8,0 -0.2,5 -9.8,0 -0.2,-5 -4.9,0 M 0,0 l 12.9,0 0.2,5 9.8,0 0.2,-5 9.8,0 0.2,5 9.8,0 0.2,-5 4.9,0 m -48,0 0,14.9 5,0.2 0,9.8 -5,0.2 0,9.8 5,0.2 0,9.8 -5,0.2 0,9.8 5,0.2 0,9.8 -5,0.2 0,14.9 95.997856,0 0,-14.9 -5,-0.2 0,-9.8 5,-0.2 0,-9.8 -5,-0.2 0,-9.8 5,-0.2 0,-9.8 -5,-0.2 0,-9.8 5,-0.2 0,-14.9"
         inkscape:connector-curvature="0"
         sodipodi:nodetypes="cccccccccccccccccccccccccccccccccccccccccccccccc" />
    </g>
    <g
       transform="translate(104.98606,83.096802)"
       id="g4517">
      <path
         d="m 0,0 12.9,0 0.2,5 9.8,0 0.2,-5 9.8,0 0.2,5 9.8,0 0.2,-5 9.8,0 0.2,5 9.8,0 0.2,-5 9.8,0 0.2,5 9.8,0 0.2,-5 7.9,0 0,14.9 5,0 0,10.2 -5,0 0,9.8 5,0 0,10.2 -5,0 0,9.8 5,0 0,10.2 -5,0 L 91,80 0,34.9 0,25.1 5,24.9 5,15.1 0,14.9 0,0"
         id="path4519"
         inkscape:connector-curvature="0"
         style="fill:none;stroke:#ff0000;stroke-width:0.1px"
         sodipodi:nodetypes="ccccccccccccccccccccccccccccccccccccc" />
    </g>
    <path
       sodipodi:nodetypes="cccccccccccccccccccccccccccccc"
       inkscape:connector-curvature="0"
       d="m 151.04178,164.08062 4.9,0 0.2,5 9.8,0 0.2,-5 9.8,0 0.2,5 9.8,0 0.2,-5 7.9,0 0,14.9 5,0 0,10.2 -5,0 0,9.8 -86.09998,0 0,-9.8 -5,0 0,-10.2 5,0 0,-14.9 7.9,0 0.2,5 9.8,0 0.2,-5 9.8,0 0.2,5 9.8,0 0.2,-5 4.9,0"
       style="fill:none;stroke:#ff0000;stroke-width:0.1px"
       id="path4547" />
    <text
       sodipodi:linespacing="125%"
       id="text4640"
       y="69.638885"
       x="29.192924"
       style="font-size:6.77333355px;font-style:normal;font-weight:normal;line-height:125%;letter-spacing:0px;word-spacing:0px;fill:#000000;fill-opacity:1;stroke:none;font-family:georgia;-inkscape-font-specification:georgia"
       xml:space="preserve"><tspan
         y="69.638885"
         x="29.192924"
         id="tspan4642"
         sodipodi:role="line">Badass Gauge</tspan></text>
    <g
       id="g4535"
       transform="matrix(1,0,0,-1,104.64276,81.659952)">
      <path
         sodipodi:nodetypes="ccccccccccccccccccccccccccccccccccccc"
         style="fill:none;stroke:#ff0000;stroke-width:0.1px"
         inkscape:connector-curvature="0"
         id="path4537"
         d="m 0,0 12.9,0 0.2,5 9.8,0 0.2,-5 9.8,0 0.2,5 9.8,0 0.2,-5 9.8,0 0.2,5 9.8,0 0.2,-5 9.8,0 0.2,5 9.8,0 0.2,-5 7.9,0 0,14.9 5,0 0,10.2 -5,0 0,9.8 5,0 0,10.2 -5,0 0,9.8 5,0 0,10.2 -5,0 L 91,80 0,34.9 0,25.1 5,24.9 5,15.1 0,14.9 0,0" />
    </g>
    <g
       id="g4724"
       transform="translate(50.235778,67.599191)"
       style="stroke-width:0.28222224;stroke-miterlimit:4;stroke-dasharray:none">
      <circle
         id="circle4726"
         r="38"
         cy="0"
         cx="0"
         sodipodi:cx="0"
         sodipodi:cy="0"
         sodipodi:rx="38"
         sodipodi:ry="38"
         style="fill:none;stroke:#ff0000;stroke-width:0.28222224;stroke-miterlimit:4;stroke-dasharray:none"
         d="M 38,0 C 38,20.98682 20.98682,38 0,38 -20.98682,38 -38,20.98682 -38,0 c 0,-20.98682 17.01318,-38 38,-38 20.98682,0 38,17.01318 38,38 z" />
      <g
         id="g4728"
         transform="matrix(0.5,0.8660254,-0.8660254,0.5,0,0)"
         style="stroke-width:0.28222224;stroke-miterlimit:4;stroke-dasharray:none">
        <circle
           id="circle4730"
           r="3"
           cx="0"
           cy="43"
           sodipodi:cx="0"
           sodipodi:cy="43"
           sodipodi:rx="3"
           sodipodi:ry="3"
           style="fill:none;stroke:#ff0000;stroke-width:0.28222224;stroke-miterlimit:4;stroke-dasharray:none"
           d="m 3,43 c 0,1.656854 -1.3431458,3 -3,3 -1.6568542,0 -3,-1.343146 -3,-3 0,-1.656854 1.3431458,-3 3,-3 1.6568542,0 3,1.343146 3,3 z" />
      </g>
      <g
         id="g4732"
         transform="scale(-1,-1)"
         style="stroke-width:0.28222224;stroke-miterlimit:4;stroke-dasharray:none">
        <circle
           id="circle4734"
           r="3"
           cx="0"
           cy="43"
           sodipodi:cx="0"
           sodipodi:cy="43"
           sodipodi:rx="3"
           sodipodi:ry="3"
           style="fill:none;stroke:#ff0000;stroke-width:0.28222224;stroke-miterlimit:4;stroke-dasharray:none"
           d="m 3,43 c 0,1.656854 -1.3431458,3 -3,3 -1.6568542,0 -3,-1.343146 -3,-3 0,-1.656854 1.3431458,-3 3,-3 1.6568542,0 3,1.343146 3,3 z" />
      </g>
      <g
         id="g4736"
         transform="matrix(0.5,-0.8660254,0.8660254,0.5,0,0)"
         style="stroke-width:0.28222224;stroke-miterlimit:4;stroke-dasharray:none">
        <circle
           id="circle4738"
           r="3"
           cx="0"
           cy="43"
           sodipodi:cx="0"
           sodipodi:cy="43"
           sodipodi:rx="3"
           sodipodi:ry="3"
           style="fill:none;stroke:#ff0000;stroke-width:0.28222224;stroke-miterlimit:4;stroke-dasharray:none"
           d="m 3,43 c 0,1.656854 -1.3431458,3 -3,3 -1.6568542,0 -3,-1.343146 -3,-3 0,-1.656854 1.3431458,-3 3,-3 1.6568542,0 3,1.343146 3,3 z" />
      </g>
    </g>
  </g>
</svg>
